<svg xmlns="http://www.w3.org/2000/svg" version="1.1" xmlns:xlink="http://www.w3.org/1999/xlink" width="32" height="32" x="0" y="0" viewBox="0 0 512 512" style="enable-background:new 0 0 512 512" xml:space="preserve" class=""><g><path d="M257.761 55.137a9.998 9.998 0 0 0-12.163-7.215c-21.566 5.508-39.506 19.041-50.512 38.106-2.762 4.783-1.123 10.898 3.66 13.659a9.994 9.994 0 0 0 13.659-3.66c8.291-14.362 21.837-24.565 38.142-28.728 5.35-1.365 8.58-6.81 7.214-12.162zM279.573 46.479c-.15-.027-.301-.052-.461-.076-5.452-.836-10.519 2.903-11.365 8.353-.844 5.44 2.9 10.54 8.327 11.413a9.992 9.992 0 0 0 1.722.149c4.739 0 8.948-3.385 9.826-8.212.987-5.434-2.616-10.639-8.049-11.627z" fill="#0075FF" opacity="1" data-original="#000000"></path><path d="M460.964 302.797c-7.361-2.103-15.322-3.966-23.761-5.578a10.067 10.067 0 0 0-1.457-.265c-24.6-4.586-53.165-7.054-82.946-7.054-16.499 0-32.614.767-47.904 2.22l61.789-107.018c15.51-26.865 19.602-58.267 11.521-88.424-8.081-30.155-27.327-55.304-54.191-70.813-55.667-32.138-127.1-13-159.237 42.665L90.195 197.708c-.007.011-.015.02-.021.031l-.017.033-74.584 129.183C.062 353.82-4.029 385.222 4.051 415.379c8.08 30.155 27.326 55.305 54.191 70.813a115.807 115.807 0 0 0 57.982 15.538c8.53 0 17.112-.936 25.6-2.832 22.589-5.043 42.897-16.489 58.644-32.805 7.914 9.019 22.642 16.642 44.08 22.766 29.049 8.299 67.491 12.87 108.248 12.87 40.756 0 79.199-4.571 108.247-12.87 33.809-9.659 50.952-23.036 50.952-39.759V342.59c.002-.021.004-.04.004-.061.001-16.689-17.17-30.057-51.035-39.732zm-108.163 7.101c15.741.001 31.076.72 45.589 2.082l-127.03 56.066c-7.536-1.463-14.651-3.134-21.229-5.013-29.969-8.563-36.531-17.705-36.531-20.505s6.563-11.942 36.532-20.506c27.365-7.817 63.827-12.124 102.669-12.124zM182.096 78.53c26.624-46.115 85.803-61.97 131.919-35.346 22.238 12.839 38.175 33.676 44.874 58.671 6.698 24.996 3.316 51.009-9.522 73.248L280.021 295.21c-.271.042-.536.089-.807.132l-166.72-96.262 69.602-120.55zM193.6 342.477c0 .019-.003.035-.003.054V443.38c-29.004 38.408-83.428 49.701-125.354 25.493-22.239-12.839-38.176-33.676-44.874-58.671-6.698-24.996-3.315-51.009 9.523-73.248l69.603-120.556 147.233 85.011c-1.725.451-3.429.911-5.094 1.387-33.828 9.666-50.997 23.017-51.034 39.681zM492 449.101c0 2.814-6.548 11.988-36.447 20.53-27.312 7.803-63.804 12.101-102.754 12.101s-75.443-4.298-102.755-12.101c-29.9-8.542-36.447-17.716-36.447-20.53v-79.266c7.979 4.649 18.335 8.798 31.039 12.428 7.846 2.242 16.388 4.202 25.448 5.884.44.111.886.194 1.339.244 24.243 4.4 52.225 6.768 81.377 6.768 40.647 0 79.061-4.58 108.164-12.895 12.702-3.629 23.056-7.777 31.036-12.426v79.263zm0-106.57v.027c-.041 2.831-6.654 11.94-36.529 20.478-27.366 7.817-63.829 12.124-102.671 12.124-15.063 0-29.757-.655-43.713-1.904l126.717-55.928c6.953 1.388 13.548 2.95 19.666 4.698 29.916 8.546 36.506 17.671 36.531 20.489l-.001.016z" fill="#0075FF" opacity="1" data-original="#000000"></path></g></svg>