<svg width="303" height="128" viewBox="0 0 303 128" fill="none" xmlns="http://www.w3.org/2000/svg">
<path d="M143.692 28.9888L146.586 28.1461L146.756 27.4719L146.246 27.6404L144.543 27.809L141.478 28.1461L138.414 28.4831L129.901 28.3146L126.837 28.4831L118.495 27.809L115.771 27.6404L101.64 25.618L97.3835 24.7753L92.4462 23.9326L86.6577 22.5843L77.4642 21.573L71.8459 20.5618L66.5681 19.7191L62.8226 19.382L60.7796 19.0449H60.0986L60.4391 17.8652L61.8011 17.3596L63.5036 16.5169L66.5681 15.5056L74.5699 12.6404L78.6559 11.1236L87.3387 8.25843L90.7437 7.58427L95.5107 6.23596L99.5968 5.5618L106.237 4.21348L111.174 3.37079L114.919 2.69663L118.324 2.35955L120.708 2.02247C122.978 1.96629 127.552 1.85393 127.688 1.85393H135.009C136.938 1.91011 141.036 2.02247 141.989 2.02247C142.943 2.02247 145.224 2.24719 146.246 2.35955C147.437 2.52809 149.889 2.86517 150.161 2.86517C150.502 2.86517 154.588 3.37079 154.758 3.37079C154.894 3.37079 158.106 4.04494 159.695 4.38202C161.284 4.7191 164.565 5.39326 164.973 5.39326C165.382 5.39326 168.889 6.40449 170.591 6.91011C172.861 7.52809 177.504 8.79775 177.912 8.93258C178.423 9.10112 182.849 10.9551 183.871 11.1236C184.892 11.2921 186.765 12.1348 187.106 12.1348C187.378 12.1348 188.354 12.6966 188.808 12.9775L189.489 12.6404L190 12.1348L188.638 11.1236L184.722 9.4382L181.658 8.42697L177.912 6.91011L165.654 3.70787L162.249 2.86517L157.312 1.85393L153.737 1.34831L147.267 0.337079L128.539 0L117.303 0.337079L112.195 1.01124L104.194 2.19101L95.8512 3.8764L86.1469 6.23596L77.2939 8.42697L56.6935 14.6629L44.095 18.5393L27.7509 22.9213L24.5161 23.5955L21.7921 24.4382L17.1953 25.1124L14.1308 25.4494H10.5556L6.81004 25.1124C5.95878 24.9438 4.22222 24.573 4.08602 24.4382C3.94982 24.3034 3.23477 24.2697 2.89427 24.2697L0.681004 23.764L0 24.1011L0.170251 24.7753C0.737754 25.1124 1.94086 25.7865 2.21326 25.7865C2.48566 25.7865 3.23477 26.236 3.57527 26.4607L5.61828 26.9663H8.6828L12.9391 27.809H16.5143L22.1326 26.9663L26.8996 25.7865L35.5824 25.1124L42.2222 24.6067H51.586L64.1846 25.1124L76.2724 25.7865L85.2957 26.4607L94.319 26.9663L101.47 27.809L105.556 28.1461L110.152 28.9888H113.557C113.898 28.9888 118.154 29.4944 118.495 29.4944C118.767 29.4944 123.262 29.8315 125.475 30H130.582H135.86C136.541 30 139.265 30 140.797 29.4944C142.023 29.0899 143.238 28.9888 143.692 28.9888Z" fill="#7F7F7F"/>
<path d="M226.095 20.1583L230 19.9928V19.3309L228.642 19H225.246L219.812 19.3309L208.775 19.8273L203.682 20.3237L196.72 21.3165L190.268 22.1439L184.495 23.4676L176.854 25.2878L173.458 26.1151L168.873 27.1079L160.383 29.5899L154.441 31.4101L150.891 32.6395L148.667 33.3957C147.818 33.6163 146.632 33.9767 146.496 33.9767C146.326 33.9767 144.592 34.554 144.423 34.554C144.287 34.554 142.999 34.9362 142.376 35.0465L138.819 35.2158H135.254H127.443L115.897 34.3885L101.973 32.7338L87.5407 31.5755L81.0884 30.9137L72.7684 30.5827L64.1088 30.0863H56.8075L37.4507 30.9137L32.8662 31.4101L29.6401 31.741L24.5462 32.5683L18.9429 33.3957L13 34.3885V35.3813L15.0376 35.0504L18.9429 34.3885L23.867 33.3957L27.0931 33.0647L33.036 32.4029L37.7903 32.0719L53.5814 31.5755L65.6369 32.0719L71.5798 32.4029L73.4476 32.7338L77.6925 33.3957L80.579 33.8921L85.1635 34.3885C86.8615 34.6643 90.3253 35.2158 90.597 35.2158C90.8687 35.2158 97.7285 36.3189 101.124 36.8705L109.614 38.0288L114.199 39.1871L117.934 39.6835L122.009 40.3453L129.311 41.1727C130.16 41.283 131.926 41.5036 132.197 41.5036C132.469 41.5036 134.348 41.6139 135.254 41.6691L138.819 42H145.102H150.365L155.969 41.6691L161.912 41.5036L165.308 41.0072L168.194 40.3453L171.76 39.8489L175.495 39.0216L180.589 37.3669L184.834 35.5468L187.381 34.3885L190.268 33.2302L198.248 29.4245L207.077 25.4532L212.681 23.4676L215.737 22.4748L218.284 21.8129L221.34 21.1511L223.208 20.6547L226.095 20.1583Z" fill="#7F7F7F"/>
<path d="M289.491 49.4757L290 49.9784H289.151L282.53 50.1459L279.304 50.4811L277.946 50.6486L276.248 50.8162C275.682 50.9279 274.482 51.1514 274.211 51.1514L270.985 51.6541L269.287 52.3243L267.59 53.1622L267.08 53.4973L266.401 53.8324H265.552L264.703 53.4973L264.024 52.9946L261.138 50.8162L259.61 49.6432L256.894 48.1351L255.196 47.2973L253.328 46.4595C252.706 46.236 251.393 45.7892 251.121 45.7892C250.85 45.7892 248.744 45.3423 247.726 45.1189L243.142 44.9514L239.067 44.7838L229.56 45.4541L224.127 46.2919L214.45 48.6378L205.282 50.4811L196.623 52.4919L187.625 53.4973L176.929 54H168.44L163.177 53.4973L158.763 53.3297L151.802 52.3243L145.69 51.8216L139.578 51.1514L135.164 50.4811L130.58 49.9784L124.468 48.973L118.866 48.1351L111.735 46.7946L105.793 45.9568L95.7761 44.2811L86.9478 43.1081L79.8172 42.1027L70.6493 40.9297L64.1978 40.2595L55.8787 39.7568L52.1437 39.4216L39.9198 38.7514L17 38.5838L20.3955 37.5784L24.9795 36.7405L29.0541 36.2378L33.6381 35.5676L37.3731 35.4L47.3899 35.2324L56.2183 35.4L64.7071 36.0703L71.1586 36.7405L79.8172 37.7459L87.6269 38.9189L96.1157 40.2595L105.793 41.9351L111.735 42.9405L119.205 44.4486L124.468 45.2865L130.58 46.1243L135.164 46.627L139.578 46.9622L145.69 47.2973H151.802H158.763L163.177 46.7946L168.44 46.1243L171.326 45.7892L175.231 44.7838L177.099 44.4486L178.797 43.9459L181.174 43.4432L182.532 42.9405L184.569 42.2703L188.134 40.9297L191.19 39.7568L193.737 38.5838L197.472 36.9081L200.358 35.4L203.244 33.8919L207.319 32.0486L211.733 29.8703L215.638 28.027L218.694 26.8541L222.09 25.6811L224.297 25.0108L226.504 24.5081L229.22 23.8378C230.352 23.6703 232.65 23.3351 232.785 23.3351C232.921 23.3351 235.106 23.1117 236.181 23H241.784L246.368 23.1676L249.084 23.5027L251.461 23.8378L254.856 24.5081L256.894 25.0108L259.78 26.0162L262.666 26.8541L266.062 28.3622L269.118 29.8703L272.513 31.8811L275.739 34.0595L278.455 36.2378L281.511 38.9189L284.907 42.4378L287.114 44.9514L287.453 46.1243L278.455 46.2919V46.627L281.172 47.2973L286.095 48.4703L289.491 49.4757Z" fill="#223D5B"/>
<path d="M293.824 72.845C295.931 75.5659 297.079 78.907 297.09 82.3482C297.1 85.7894 295.973 89.1375 293.882 91.8712C291.792 94.6049 288.857 96.5708 285.533 97.4628C282.21 98.3548 278.684 98.1228 275.506 96.8029C272.328 95.4831 269.676 93.1495 267.962 90.1654C266.248 87.1814 265.569 83.7144 266.031 80.3043C266.492 76.8941 268.068 73.7323 270.513 71.311C272.958 68.8897 276.136 67.3448 279.55 66.917V62.9H283.45V66.917C286.297 67.268 288.91 68.399 291.055 70.076L293.902 67.229L296.671 69.998L293.824 72.8255V72.845ZM281.5 94.1C284.603 94.1 287.579 92.8673 289.773 90.6731C291.967 88.479 293.2 85.503 293.2 82.4C293.2 79.297 291.967 76.321 289.773 74.1269C287.579 71.9327 284.603 70.7 281.5 70.7C278.397 70.7 275.421 71.9327 273.227 74.1269C271.033 76.321 269.8 79.297 269.8 82.4C269.8 85.503 271.033 88.479 273.227 90.6731C275.421 92.8673 278.397 94.1 281.5 94.1ZM275.65 59H287.35V62.9H275.65V59Z" fill="#223D5B"/>
<path d="M279.221 79.0229H280.74C281.143 79.0229 281.53 79.1819 281.815 79.4648C282.1 79.7478 282.26 80.1315 282.26 80.5317C282.26 80.9318 282.1 81.3156 281.815 81.5985C281.53 81.8815 281.143 82.0404 280.74 82.0404M280.74 82.0404H280.234M280.74 82.0404C281.143 82.0404 281.53 82.1994 281.815 82.4824C282.1 82.7653 282.26 83.1491 282.26 83.5492C282.26 83.9494 282.1 84.3331 281.815 84.6161C281.53 84.899 281.143 85.058 280.74 85.058H279.221M274.156 82.0404V82.0505M278.714 74.1948V74.2049M278.714 89.8861V89.8961M275.371 86.5668V86.5768M275.371 77.5141V77.5242M285.299 80.5317V83.5492C285.299 83.9494 285.459 84.3331 285.744 84.6161C286.029 84.899 286.415 85.058 286.818 85.058C287.221 85.058 287.608 84.899 287.893 84.6161C288.177 84.3331 288.338 83.9494 288.338 83.5492V80.5317C288.338 80.1315 288.177 79.7478 287.893 79.4648C287.608 79.1819 287.221 79.0229 286.818 79.0229C286.415 79.0229 286.029 79.1819 285.744 79.4648C285.459 79.7478 285.299 80.1315 285.299 80.5317Z" stroke="#223D5B" stroke-width="2" stroke-linecap="round" stroke-linejoin="round"/>
<path d="M60.8281 63.4648V68.8555C58.1979 66.6549 55.4766 65.5547 52.6641 65.5547C49.5651 65.5547 46.9544 66.668 44.832 68.8945C42.6966 71.1081 41.6289 73.8164 41.6289 77.0195C41.6289 80.1836 42.6966 82.8529 44.832 85.0273C46.9674 87.2018 49.5846 88.2891 52.6836 88.2891C54.2852 88.2891 55.6458 88.0286 56.7656 87.5078C57.3906 87.2474 58.0352 86.8958 58.6992 86.4531C59.3763 86.0104 60.0859 85.4766 60.8281 84.8516V90.3398C58.224 91.8112 55.4896 92.5469 52.625 92.5469C48.3151 92.5469 44.6367 91.043 41.5898 88.0352C38.556 85.0013 37.0391 81.3424 37.0391 77.0586C37.0391 73.2174 38.3086 69.793 40.8477 66.7852C43.9727 63.1003 48.0156 61.2578 52.9766 61.2578C55.6849 61.2578 58.3021 61.9935 60.8281 63.4648ZM90.0469 84.6758H77.1367L73.7773 92H68.875L83.7969 59.9492L98.1914 92H93.2109L90.0469 84.6758ZM88.1914 80.3984L83.7188 70.1445L79.0312 80.3984H88.1914ZM117.195 79.1484L126.531 92H120.965L112.352 79.6562H111.531V92H106.98V61.8438H112.312C116.297 61.8438 119.174 62.5924 120.945 64.0898C122.898 65.7565 123.875 67.957 123.875 70.6914C123.875 72.8268 123.263 74.6628 122.039 76.1992C120.815 77.7357 119.201 78.7188 117.195 79.1484ZM111.531 75.6914H112.977C117.286 75.6914 119.441 74.0443 119.441 70.75C119.441 67.6641 117.345 66.1211 113.152 66.1211H111.531V75.6914ZM161.746 66.1211V92H157.195V66.1211H150.262V61.8438H168.66V66.1211H161.746ZM182.273 61.8438V92H177.723V61.8438H182.273ZM193.465 92L199.812 59.5781L210.164 83.0156L220.887 59.5781L226.59 92H221.922L219.012 73.7969L210.086 93.3867L201.414 73.7773L198.172 92H193.465ZM254.637 66.1211H242.547V73.3672H254.285V77.6445H242.547V87.7227H254.637V92H237.996V61.8438H254.637V66.1211Z" fill="#223D5B"/>
<path d="M49.9395 116V102.377H55.3496C57.7227 102.377 59.2461 103.793 59.2461 105.717C59.2461 106.986 58.5918 108.07 57.2637 108.666C58.9141 109.213 59.8809 110.434 59.8809 112.104C59.8809 114.301 58.2305 116 55.6426 116H49.9395ZM55.3496 114.711C57.1855 114.711 58.416 113.607 58.416 112.035C58.416 110.395 57.0879 109.379 55.3203 109.379H51.4043V114.711H55.3496ZM55.3203 108.119C56.6777 108.119 57.7812 107.143 57.7812 105.795C57.7812 104.574 56.873 103.656 55.252 103.656H51.4043V108.119H55.3203ZM67.3613 116.254C64.4414 116.254 62.2832 114.154 62.2832 111.283V102.377H63.748V111.361C63.748 113.441 65.2617 114.945 67.3613 114.945C69.4414 114.945 70.9746 113.471 70.9746 111.4V102.377H72.4395V111.322C72.4395 114.174 70.2617 116.254 67.3613 116.254ZM79.3242 116V110.521L74.4512 102.377H76.1016L80.0566 108.988L84.0215 102.377H85.6719L80.7891 110.521V116H79.3242ZM97.8691 116.254C93.9531 116.254 91.7656 113.314 91.7656 109.193C91.7656 105.033 93.9629 102.123 97.8691 102.123C101.785 102.123 103.982 105.033 103.982 109.193C103.982 113.314 101.785 116.254 97.8691 116.254ZM97.8691 114.936C100.809 114.936 102.498 112.445 102.498 109.174C102.498 105.922 100.828 103.432 97.8691 103.432C94.9199 103.432 93.25 105.922 93.25 109.174C93.25 112.445 94.9395 114.936 97.8691 114.936ZM106.6 116V102.377H112.195C114.568 102.377 116.287 104.027 116.287 106.205C116.287 107.66 115.535 108.891 114.275 109.496C115.594 109.975 116.111 111.01 116.111 112.309V114.496C116.111 115.072 116.248 115.551 116.521 116H114.959C114.744 115.658 114.646 115.16 114.646 114.516V112.299C114.646 111.049 113.846 110.141 112.156 110.141H108.064V116H106.6ZM112.156 108.861C113.758 108.861 114.822 107.699 114.822 106.244C114.822 104.76 113.719 103.656 112.156 103.656H108.064V108.861H112.156ZM128.338 116.254C125.223 116.254 123.25 114.516 123.143 111.762H124.598C124.734 113.764 126.199 114.965 128.338 114.965C130.174 114.965 131.668 114.076 131.668 112.406C131.668 110.717 130.125 110.189 128.006 109.594C126.15 109.086 123.543 108.402 123.543 105.639C123.543 103.119 125.691 102.123 128.094 102.123C130.906 102.123 132.586 103.49 132.762 106.039H131.307C131.141 104.301 129.949 103.412 128.035 103.412C126.297 103.412 125.008 104.154 125.008 105.609C125.008 107.25 126.639 107.689 128.377 108.188C131.268 109.027 133.133 109.809 133.133 112.318C133.133 115.131 130.799 116.254 128.338 116.254ZM135.584 116V102.377H144.666V103.656H137.049V108.324H144.217V109.604H137.049V114.721H145.008V116H135.584ZM147.596 116V102.377H149.061V114.721H155.896V116H147.596ZM158.221 116V102.377H159.686V114.721H166.521V116H158.221ZM173.416 116V102.377H174.881V116H173.416ZM178.025 116V102.377H180.008L186.971 114.213V102.377H188.377V116H186.395L179.432 104.164V116H178.025ZM200.506 116.254C198.055 116.254 196.443 114.809 196.004 112.631L197.361 112.25C197.781 114.086 198.914 114.936 200.496 114.936C202.215 114.936 203.523 113.91 203.523 112.182C203.523 110.453 202.234 109.438 200.428 109.438H199.568V108.1H200.428C202.078 108.1 202.908 107.152 202.908 105.766C202.908 104.193 201.834 103.441 200.447 103.441C198.865 103.441 197.918 104.438 197.684 105.844L196.229 105.463C196.648 103.393 198.172 102.123 200.398 102.123C202.645 102.123 204.393 103.422 204.393 105.619C204.393 107.006 203.66 108.1 202.371 108.705C204.031 109.232 205.008 110.492 205.008 112.211C205.008 114.643 203.104 116.254 200.506 116.254ZM212.537 116.254C209.441 116.254 207.713 113.344 207.713 109.184C207.713 104.955 209.441 102.123 212.537 102.123C215.623 102.123 217.361 104.955 217.361 109.174C217.361 113.344 215.633 116.254 212.537 116.254ZM212.537 114.936C214.744 114.936 215.867 112.562 215.867 109.174C215.867 105.746 214.744 103.441 212.537 103.441C210.32 103.441 209.197 105.756 209.197 109.174C209.197 112.572 210.32 114.936 212.537 114.936ZM224.686 116V102.377H226.941L230.652 112.904C230.73 113.158 230.877 113.627 230.994 114.057C231.111 113.627 231.258 113.158 231.346 112.904L235.057 102.377H237.312V116H235.906V106.527C235.906 105.971 235.955 104.252 235.965 103.646C235.779 104.223 235.555 105.004 235.35 105.551L231.629 116H230.369L226.639 105.551C226.473 105.092 226.189 104.193 226.033 103.656C226.043 104.252 226.092 105.971 226.092 106.527V116H224.686ZM240.467 116V102.377H241.932V116H240.467ZM245.076 116V102.377H247.059L254.021 114.213V102.377H255.428V116H253.445L246.482 104.164V116H245.076Z" fill="#716F6F"/>
</svg>
