<svg xmlns="http://www.w3.org/2000/svg" version="1.1" xmlns:xlink="http://www.w3.org/1999/xlink" width="32" height="32" x="0" y="0" viewBox="0 0 32 32" style="enable-background:new 0 0 512 512" xml:space="preserve" class=""><g><g fill="#000" fill-rule="evenodd" clip-rule="evenodd"><path d="M16 2a5 5 0 0 0-5 5v1H8.79a3 3 0 0 0-2.982 2.669l-1.555 14A3 3 0 0 0 7.235 28H19a1 1 0 1 0 0-2H7.235a1 1 0 0 1-.994-1.11l1.555-14A1 1 0 0 1 8.79 10H11v2a1 1 0 1 0 2 0v-2h6v2a1 1 0 1 0 2 0v-2h2.21a1 1 0 0 1 .994.89l.802 7.22a1 1 0 0 0 1.988-.22l-.802-7.221A3 3 0 0 0 23.21 8H21V7a5 5 0 0 0-5-5zm3 6V7a3 3 0 1 0-6 0v1z" fill="#0075FF" opacity="1" data-original="#000000" class=""></path><path d="M25 21a1 1 0 1 0-2 0v2h-2a1 1 0 1 0 0 2h2v2a1 1 0 1 0 2 0v-2h2a1 1 0 1 0 0-2h-2z" fill="#0075FF" opacity="1" data-original="#000000" class=""></path></g></g></svg>